<svg width="8" height="3" viewBox="0 0 8 3" fill="none" xmlns="http://www.w3.org/2000/svg">
<mask id="path-1-inside-1_10_34" fill="white">
<path d="M0 -1.19209e-07L4 3L8 -1.19209e-07H7L5.5 1L4 2.05882L2.5 1L1 -1.19209e-07L0 -1.19209e-07Z"/>
</mask>
<path d="M4 3L-20 35L4 53L28 35L4 3ZM0 -1.19209e-07L0 -40L-120 -40L-24 32L0 -1.19209e-07ZM8 -1.19209e-07L32 32L128 -40L8 -40L8 -1.19209e-07ZM2.5 1L25.5673 -31.6787L25.1317 -31.9862L24.688 -32.282L2.5 1ZM4 2.05882L-19.0673 34.7376L4.00001 51.0204L27.0673 34.7375L4 2.05882ZM5.5 1L-16.688 -32.282L-17.1317 -31.9862L-17.5673 -31.6787L5.5 1ZM1 -1.19209e-07L23.188 -33.282L13.111 -40H1L1 -1.19209e-07ZM7 -1.19209e-07L7 -40H-5.11103L-15.188 -33.282L7 -1.19209e-07ZM28 -29L24 -32L-24 32L-20 35L28 -29ZM-16 -32L-20 -29L28 35L32 32L-16 -32ZM-20.5673 33.6787L-19.0673 34.7376L27.0673 -30.6199L25.5673 -31.6787L-20.5673 33.6787ZM27.0673 34.7375L28.5673 33.6787L-17.5673 -31.6787L-19.0673 -30.6199L27.0673 34.7375ZM0 40H1L1 -40H0L0 40ZM-21.188 33.282L-19.688 34.282L24.688 -32.282L23.188 -33.282L-21.188 33.282ZM27.688 34.282L29.188 33.282L-15.188 -33.282L-16.688 -32.282L27.688 34.282ZM7 40H8L8 -40H7L7 40Z" fill="black" mask="url(#path-1-inside-1_10_34)"/>
</svg>
